<svg xmlns="http://www.w3.org/2000/svg" viewBox="0 0 512 512" width="512" height="512" aria-labelledby="title desc" role="img">
  <title id="title">Cúmulo estelar</title>
  <desc id="desc">Conjunto de estrellas con brillo central y dispersión hacia el exterior, estilo plano educativo.</desc>

  <!-- Brillo suave central -->
  <defs>
    <radialGradient id="glow" cx="50%" cy="50%" r="50%">
      <stop offset="0%" stop-color="#FFFFFF" stop-opacity="0.95"/>
      <stop offset="60%" stop-color="#FFFFFF" stop-opacity="0.35"/>
      <stop offset="100%" stop-color="#FFFFFF" stop-opacity="0"/>
    </radialGradient>
  </defs>
  <circle cx="256" cy="256" r="180" fill="url(#glow)"/>

  <!-- Estrella central -->
  <g transform="translate(256 256)">
    <circle r="6" fill="#FFF"/>
    <path d="M0-18 L2.5-2 L18 0 L2.5 2 L0 18 L-2.5 2 L-18 0 L-2.5 -2 Z" fill="#FFF" opacity="0.9"/>
  </g>

  <!-- Estrellas del cúmulo (circulitos de distinto tamaño y opacidad) -->
  <g fill="#FFFFFF">
    <!-- anillo interno -->
    <circle cx="230" cy="245" r="3"/>
    <circle cx="275" cy="240" r="2.5" opacity="0.9"/>
    <circle cx="248" cy="225" r="2.2" opacity="0.85"/>
    <circle cx="268" cy="270" r="2.6" opacity="0.9"/>
    <circle cx="235" cy="270" r="2.2" opacity="0.85"/>
    <circle cx="285" cy="255" r="2.2" opacity="0.85"/>
    <circle cx="225" cy="255" r="2.2" opacity="0.85"/>
    <!-- anillo medio -->
    <circle cx="300" cy="250" r="2" opacity="0.8"/>
    <circle cx="212" cy="245" r="2" opacity="0.8"/>
    <circle cx="256" cy="300" r="2.2" opacity="0.8"/>
    <circle cx="256" cy="210" r="2.2" opacity="0.8"/>
    <circle cx="285" cy="285" r="1.8" opacity="0.75"/>
    <circle cx="227" cy="288" r="1.8" opacity="0.75"/>
    <circle cx="288" cy="220" r="1.8" opacity="0.75"/>
    <circle cx="224" cy="222" r="1.8" opacity="0.75"/>
    <!-- anillo externo -->
    <circle cx="320" cy="260" r="1.6" opacity="0.7"/>
    <circle cx="192" cy="252" r="1.6" opacity="0.7"/>
    <circle cx="256" cy="332" r="1.6" opacity="0.7"/>
    <circle cx="256" cy="178" r="1.6" opacity="0.7"/>
    <circle cx="310" cy="290" r="1.5" opacity="0.65"/>
    <circle cx="205" cy="286" r="1.5" opacity="0.65"/>
    <circle cx="305" cy="215" r="1.5" opacity="0.65"/>
    <circle cx="205" cy="214" r="1.5" opacity="0.65"/>
    <circle cx="340" cy="246" r="1.4" opacity="0.6"/>
    <circle cx="172" cy="244" r="1.4" opacity="0.6"/>
    <circle cx="236" cy="342" r="1.4" opacity="0.6"/>
    <circle cx="279" cy="170" r="1.4" opacity="0.6"/>
    <!-- chispas sueltas -->
    <circle cx="146" cy="212" r="1.2" opacity="0.55"/>
    <circle cx="370" cy="284" r="1.2" opacity="0.55"/>
    <circle cx="355" cy="188" r="1.2" opacity="0.55"/>
    <circle cx="162" cy="306" r="1.2" opacity="0.55"/>
    <circle cx="330" cy="338" r="1.2" opacity="0.55"/>
    <circle cx="190" cy="350" r="1.2" opacity="0.55"/>
  </g>
</svg>
